<?xml version="1.0" encoding="utf-8"?>
<!-- Generator: Adobe Illustrator 21.0.0, SVG Export Plug-In . SVG Version: 6.00 Build 0)  -->
<svg version="1.1" id="_x30_d069602-cf75-4e6f-8c90-f5642011a0c2"
	 xmlns="http://www.w3.org/2000/svg" xmlns:xlink="http://www.w3.org/1999/xlink" x="0px" y="0px" viewBox="0 0 564.3 149.5"
	 style="enable-background:new 0 0 564.3 149.5;" xml:space="preserve">
<style type="text/css">
	.st0{fill:#FFFFFF;}
</style>
<title>shycartLogo</title>
<path class="st0" d="M66.4,69.2c-3.5-4.7-9-8.3-16.7-10.8c-1.4-0.4-3-0.8-4.9-1.3s-3.4-0.9-4.4-1.2c-1.1-0.3-2.2-0.7-3.2-1.2
	c-0.9-0.4-1.7-1-2.3-1.8c-0.5-0.8-0.7-1.7-0.7-2.6c0-2.4,1.4-4,4.1-4.9c8.2-2,15.6,1.3,20.3,4.4l0,0c3,2.3,7.3,1.8,9.6-1.2
	c2.3-3,1.8-7.3-1.2-9.6l0,0l0,0c-2.5-1.8-5.2-3.4-8-4.8c-4.8-2.3-9.8-3.8-15.1-4.6c-1.7-0.2-3.3-0.3-5-0.4l0,0c-0.7,0-1.3,0-2,0
	c-2.2,0-4.3,0.2-6.4,0.6l0,0c-3.1,0.4-6.2,1.2-9.1,2.2c-5.1,1.8-9.6,5-13,9.2C4.8,45.6,3,51,3.1,56.5C3.1,70.9,10.8,80.4,26,85
	c4.4,1.2,8.7,2.8,12.8,4.7c2.6,1.3,3.9,2.9,3.9,4.6c0.1,1.7-0.8,3.2-2.2,4.1c-1.5,1-4.2,1.5-8.1,1.5c-0.9,0-1.7,0-2.6-0.1l0,0
	c-6.6-0.5-13.1-2.3-19.1-5.3l0,0C7,92.7,2.4,94.3,0.7,98.1c-1.6,3.5-0.4,7.6,2.8,9.6l0,0c4.6,3.1,13.6,7.8,27.8,9.1
	c1.8,0.2,3.7,0.2,5.5,0c23.2-0.9,34.8-10.9,34.8-30.2C71.6,79.6,69.8,73.8,66.4,69.2z"/>
<path class="st0" d="M241.4,29.3c-9.1,0-16.4,7-16.4,15.6c0,0.2,0,0.4,0,0.7v46.2c-0.8,0.7-1.7,1.4-2.7,2c-0.8,0.5-1.7,0.9-2.6,1.3
	c-0.8,0.3-1.7,0.4-2.6,0.4c-3,0-4.9-0.7-5.9-2.2c-1-1.4-1.5-3.7-1.5-6.8V45.5c0-0.2,0-0.3,0-0.5c0-8.7-7.4-15.7-16.5-15.7
	s-16.5,7-16.5,15.6l0,0v35.3c0,13.3,2,22.7,6.1,28.3c4.1,5.6,11.2,8.4,21.2,8.4c2.6,0,5.3-0.6,7.7-1.6c2.3-1,4.5-2.3,6.4-3.9
	c1.6-1.4,3.2-2.9,4.7-4.5c1.1-1.2,2.2-2.5,3.1-3.9l1-1.6v8.7c0,3.4-0.4,6.9-1.3,10.2c-0.6,2.4-1.8,4.6-3.5,6.4
	c-1.5,1.5-3.3,2.5-5.2,3.2c-2.3,0.6-4.6,1-6.9,0.9c-3.5,0-6.9-0.2-10.3-0.7c-5.7-1.2-11.2-3.5-16.2-6.6c-0.2-0.1-0.4-0.3-0.6-0.4
	l0,0l0,0c-2.6-1.4-5.9-0.5-7.4,2.2c-1.3,2.4-0.6,5.4,1.7,7c2.1,1.9,10,8.7,16.8,11.9c1.8,0.9,3.7,1.6,5.6,2.3
	c2.3,0.7,4.6,1.4,6.9,1.8l0,0c1.6,0.4,3.2,0.6,4.8,0.8c2.6,0.3,5.2,0.5,7.8,0.4c13.2,0,23-4,29.3-12.1c6.3-8.1,9.5-19.5,9.5-34.3
	V44.9C257.9,36.3,250.5,29.3,241.4,29.3z"/>
<path class="st0" d="M160,36.9c-3.8-5-10.3-7.6-19.5-7.6c-2.7,0-5.5,0.6-8,1.6c-2.5,0.9-4.8,2.2-7,3.7c-1.9,1.4-3.6,2.8-5.3,4.4
	c-1.3,1.2-2.5,2.5-3.6,3.8l-1.2,1.5V15.6C115.4,7,108,0,99,0S82.5,7,82.5,15.6v94c0,4,3.2,7.3,7.3,7.4c0,0,0,0,0,0h18
	c4,0,7.3-3.3,7.3-7.3V58.2l1.1-0.9l1.2-1c0.2-0.1,0.5-0.4,1.1-0.8c0.4-0.3,0.9-0.6,1.3-0.8c0.3-0.1,0.7-0.3,1.3-0.6
	c0.5-0.3,1-0.4,1.6-0.5c0.5-0.1,1-0.1,1.6-0.1c5.6,0,8.3,3.2,8.1,9.5v46.7c0,4,3.3,7.3,7.3,7.3h18.6c4,0,7.3-3.3,7.3-7.3V65.9
	c0-0.5,0-1.1,0.1-1.9v-1.8C165.7,50.3,163.8,41.9,160,36.9z"/>
<path class="st0" d="M327.1,96.7L327.1,96.7c-0.6,0.2-1.2,0.3-1.8,0.5c-3.3,0.8-6.7,1.2-10.1,1.2c-1.2,0-2.4-0.1-3.6-0.2
	c-1.3-0.3-2.6-0.8-3.8-1.5c-1.5-0.8-2.8-2.1-3.7-3.6c-1-1.8-1.7-3.7-2.1-5.7c-1-4.7-1.4-9.5-1.4-14.2c0-4.8,0.4-9.6,1.4-14.2
	c0.5-2,1.2-3.9,2.1-5.7c0.9-1.5,2.2-2.8,3.7-3.6c1.2-0.7,2.5-1.2,3.8-1.5c1.2-0.1,2.4-0.2,3.6-0.2c3.4,0,6.8,0.4,10.1,1.2
	c0.7,0.2,1.3,0.3,2,0.5l0.2,0.1l0.2,0l0,0c4.3,1,8.6-1.8,9.5-6.1c0.8-3.5-0.8-7-3.9-8.7l-0.2-0.1c-1.1-0.7-2.3-1.3-3.6-2
	c-2.6-1.2-5.4-2.1-8.3-2.6c-3.7-0.7-7.4-1-11.1-1c-13.3,0-23.6,3.9-30.7,11.8s-10.6,18.2-10.6,31.1c0,0.3,0,0.7,0,1s0,0.7,0,1
	c0,12.9,3.5,23.3,10.6,31.1s17.3,11.8,30.6,11.8c3.7,0,7.4-0.3,11.1-1c2.9-0.5,5.6-1.4,8.3-2.6c1.4-0.7,2.6-1.3,3.7-2l0.3-0.2
	c3.8-2.2,5.1-7.1,2.8-11C334.5,97.2,330.7,95.7,327.1,96.7L327.1,96.7z"/>
<path class="st0" d="M418.1,49.3c-0.9-4.3-2.9-8.3-5.7-11.6c-2.8-3.1-6.4-5.4-10.4-6.5c-5.3-1.4-10.8-2.1-16.2-1.9
	c-7.4,0-14.8,1.1-21.8,3.3c-3.6,1.1-7.1,2.4-10.5,3.9l0,0l-0.1,0.1c-3.9,2-5.3,6.8-3.3,10.7c1.8,3.4,5.7,5,9.4,3.9l0,0
	c1.2-0.3,2.4-0.6,3.8-0.9c4.2-0.9,8.4-1.4,12.7-1.4c4.7,0,8.2,0.8,10.3,2.5c2.1,1.6,3.2,4.5,3.2,8.5v1.8c-2.2,0-4.6,0.1-7,0.3
	c-2.8,0.2-5.5,0.6-8.3,1.2c-3,0.6-5.9,1.3-8.8,2.2c-2.9,0.9-5.7,2.2-8.3,3.7c-2.6,1.4-5,3.2-7.1,5.3c-4.3,4.4-6.7,10.4-6.7,16.6
	c0,17.5,8.9,26.3,26.6,26.3c2.6,0,5.2-0.4,7.7-1.1c2.2-0.6,4.4-1.5,6.4-2.7c1.6-1,3.2-2,4.6-3.2c1.1-0.8,2.1-1.7,3-2.8l1-1.1
	l0.8,2.2l0,0l0.6,1.8c1.7,4,5.5,6.7,9.8,6.9h8.8c4,0,7.3-3.3,7.3-7.3V67.2C419.9,61.2,419.4,55.2,418.1,49.3z M389.4,97.5
	c-0.7,0.7-1.5,1.2-2.3,1.6c-0.8,0.4-1.6,0.5-2.4,0.5c-5.6,0-8.4-4.1-8.4-12.3c0-4.6,1.2-8,3.5-10.2c2.4-2.2,5.5-3.3,9.5-3.3V97.5z"
	/>
<path class="st0" d="M482.9,29.3c-2.7,0.1-5.4,0.6-8,1.5l0,0l-0.2,0.1c-0.4,0.1-0.8,0.3-1.2,0.4l-0.6,0.2c-0.4,0.1-0.7,0.3-1,0.5
	l-0.4,0.2c-2.1,1.1-4,2.5-5.5,4.1c-0.2,0.2-0.5,0.5-0.7,0.8c-3.2,3.8-5.4,8.2-6.4,13c-0.4,1.4-0.7,2.8-0.9,4.2l-1.6-13l0,0
	c-0.8-7-7.1-12.1-14.1-11.3c-5.9,0.7-10.6,5.3-11.3,11.3l0,0l-0.1,9.4v59c0,4,3.3,7.2,7.3,7.2h18.4c4,0,7.3-3.2,7.3-7.2V70.2
	c0,0,1.9-4.8,10.8-5.5c1.7-0.1,3.3-0.1,5,0h3.8c3.8-0.4,6.7-3.5,6.8-7.3V36C489.9,32.2,486.7,29.3,482.9,29.3z"/>
<path class="st0" d="M561.5,96.7c-1.5-0.7-3.2-0.7-4.7,0l0,0c-0.4,0.2-0.9,0.4-1.4,0.5c-1.2,0.4-2.5,0.5-3.8,0.5
	c-3.2,0-5.6-0.9-7.2-2.6c-1.5-1.8-2.3-5.3-2.3-10.7V46.9l11.9-0.1h0.4c4.9,0,8.8-3.9,8.8-8.8s-3.9-8.8-8.8-8.8c-0.3,0-0.5,0-0.8,0
	l-11.1-0.1c0-6.3,0-12.5,0-18.8c0-0.4,0.1-0.7,0.1-1.1c0-5.1-4.1-9.3-9.2-9.3c-3.8,0-7.2,2.2-8.6,5.7l0,0l-7,15.9
	c-4.4,8.2-8.2,7.5-8.2,7.5l0,0h-4h-0.3h-0.3h-0.1c-4,0-7.3,3.3-7.3,7.3v2.9c0,4,3.3,7.3,7.3,7.3h0.1h0.3h0.3h4v34.4
	c0,13,1.8,22.2,5.4,27.6c3.6,5.4,9.9,8.2,19,8.2c4.2,0,8.4-0.5,12.5-1.5c2.8-0.6,5.5-1.7,8-3c2.9-1.6,5.6-3.8,7.7-6.4
	c1.4-1.4,2.1-3.3,2.2-5.3C564.2,99,563.1,97.4,561.5,96.7z"/>
</svg>
